<svg width="364" height="100" viewBox="0 0 364 100" fill="none" xmlns="http://www.w3.org/2000/svg">
<path d="M316.385 92.6702C310.106 90.9876 304.766 88.442 300.366 85.0333C296.071 81.5636 292.968 77.6106 291.057 73.1744C289.251 68.6771 288.807 64.0543 289.725 59.3059L313.273 65.6156C313.002 67.9509 313.567 69.9751 314.967 71.6882C316.368 73.4013 318.349 74.601 320.91 75.2873C322.893 75.8187 324.575 75.8233 325.954 75.3011C327.334 74.779 328.202 73.8522 328.559 72.5208C329.027 70.7733 328.423 69.229 326.745 67.8876C325.068 66.5463 322.173 64.7897 318.062 62.6177C313.372 60.2908 309.542 58.0605 306.571 55.9267C303.6 53.793 301.255 50.9794 299.534 47.486C297.896 44.0148 297.724 39.866 299.017 35.0397C300.132 30.8792 302.25 27.4335 305.373 24.7028C308.518 21.8889 312.507 20.059 317.338 19.2132C322.252 18.3895 327.767 18.7968 333.881 20.4352C342.97 22.8705 349.515 27.0323 353.516 32.9205C357.518 38.8087 358.951 45.5248 357.815 53.0689L335.878 47.1908C336.067 44.8334 335.532 42.8619 334.274 41.2763C333.122 39.6296 331.264 38.4631 328.703 37.7768C326.72 37.2454 325.091 37.2103 323.816 37.6714C322.624 38.1546 321.85 39.0619 321.493 40.3933C321.047 42.0576 321.652 43.6019 323.307 45.0265C324.984 46.3678 327.807 48.0607 331.776 50.1051C336.526 52.5374 340.375 54.862 343.324 57.079C346.355 59.3181 348.708 62.2675 350.384 65.9273C352.165 69.5261 352.376 73.8634 351.016 78.9393C349.923 83.0167 347.744 86.357 344.478 88.9602C341.295 91.5856 337.258 93.2685 332.366 94.0089C327.579 94.6884 322.252 94.2421 316.385 92.6702Z" fill="#F3C416"/>
<path d="M78.685 22.0498V89.3319H59.9459V52.2075L47.2301 89.3319H31.5505L18.7391 51.9212V89.3319H0V22.0498H22.659L39.5815 65.7593L56.1216 22.0498H78.685Z" fill="#20476E"/>
<path d="M119.277 90C112.967 90 107.167 88.5367 101.877 85.61C96.5863 82.6196 92.3796 78.5159 89.2564 73.2988C86.197 68.018 84.6672 62.0692 84.6672 55.4523C84.6672 48.8354 86.197 42.9184 89.2564 37.7012C92.3796 32.4205 96.5863 28.3167 101.877 25.39C107.167 22.4633 112.967 21 119.277 21C125.651 21 131.451 22.4633 136.678 25.39C141.968 28.3167 146.143 32.4205 149.202 37.7012C152.262 42.9184 153.792 48.8354 153.792 55.4523C153.792 62.0692 152.262 68.018 149.202 73.2988C146.143 78.5159 141.968 82.6196 136.678 85.61C131.387 88.5367 125.587 90 119.277 90ZM119.277 72.6307C124.058 72.6307 127.818 71.0719 130.559 67.9544C133.363 64.8368 134.766 60.6694 134.766 55.4523C134.766 50.1079 133.363 45.9087 130.559 42.8548C127.818 39.7372 124.058 38.1784 119.277 38.1784C114.433 38.1784 110.641 39.7372 107.9 42.8548C105.159 45.9087 103.789 50.1079 103.789 55.4523C103.789 60.7331 105.159 64.9322 107.9 68.0498C110.641 71.1037 114.433 72.6307 119.277 72.6307Z" fill="#20476E"/>
<path d="M225.412 22.0498L202.179 89.3319H178.182L154.854 22.0498H174.931L190.228 70.6266L205.43 22.0498H225.412Z" fill="#20476E"/>
<path d="M247.6 22.0498V89.3319H228.861V22.0498H247.6Z" fill="#20476E"/>
<path d="M274.62 37.0332V48.0083H296.132V62.2282H274.62V74.3485H299V89.3319H255.881V22.0498H299V37.0332H274.62Z" fill="#20476E"/>
</svg>
